<svg viewBox="0 0 200 200" xmlns="http://www.w3.org/2000/svg">
  <defs>
    <radialGradient id="b2" cx="50%" cy="38%" r="70%">
      <stop offset="0%" stop-color="#d4f1ff"/>
      <stop offset="100%" stop-color="#5bc8ff"/>
    </radialGradient>
    <linearGradient id="d2" x1="0" y1="0" x2="0" y2="1">
      <stop offset="0%" stop-color="#9fe2ff"/>
      <stop offset="100%" stop-color="#3aa8e0"/>
    </linearGradient>
  </defs>
  <ellipse cx="100" cy="182" rx="46" ry="9" fill="#000" opacity="0.12"/>
  <ellipse cx="78" cy="170" rx="15" ry="9" fill="#46b3ef"/>
  <ellipse cx="122" cy="170" rx="15" ry="9" fill="#46b3ef"/>
  <ellipse cx="100" cy="116" rx="58" ry="54" fill="url(#b2)"/>
  <ellipse cx="100" cy="130" rx="33" ry="30" fill="#eaf8ff"/>
  <path d="M100 26 C100 26 124 62 124 82 A24 24 0 1 1 76 82 C76 62 100 26 100 26 Z" fill="url(#d2)"/>
  <ellipse cx="95" cy="74" rx="5" ry="7" fill="#fff" opacity="0.7"/>
  <ellipse cx="44" cy="120" rx="11" ry="14" fill="#5bc8ff" transform="rotate(-20 44 120)"/>
  <ellipse cx="156" cy="120" rx="11" ry="14" fill="#5bc8ff" transform="rotate(20 156 120)"/>
  <ellipse cx="80" cy="108" rx="14" ry="17" fill="#fff"/>
  <ellipse cx="120" cy="108" rx="14" ry="17" fill="#fff"/>
  <circle cx="82" cy="112" r="8.5" fill="#2f4a57"/>
  <circle cx="122" cy="112" r="8.5" fill="#2f4a57"/>
  <circle cx="85" cy="108" r="3" fill="#fff"/>
  <circle cx="125" cy="108" r="3" fill="#fff"/>
  <circle cx="64" cy="126" r="8" fill="#ffb3c8" opacity="0.65"/>
  <circle cx="136" cy="126" r="8" fill="#ffb3c8" opacity="0.65"/>
  <path d="M92 128 Q100 137 108 128" stroke="#2f4a57" stroke-width="3" fill="none" stroke-linecap="round"/>
</svg>
