<svg viewBox="0 0 200 200" xmlns="http://www.w3.org/2000/svg">
  <defs>
    <radialGradient id="b3" cx="50%" cy="38%" r="70%">
      <stop offset="0%" stop-color="#e2f8c4"/>
      <stop offset="100%" stop-color="#6fcf57"/>
    </radialGradient>
  </defs>
  <ellipse cx="100" cy="182" rx="46" ry="9" fill="#000" opacity="0.12"/>
  <ellipse cx="78" cy="170" rx="15" ry="9" fill="#5bbf45"/>
  <ellipse cx="122" cy="170" rx="15" ry="9" fill="#5bbf45"/>
  <ellipse cx="100" cy="116" rx="58" ry="54" fill="url(#b3)"/>
  <ellipse cx="100" cy="130" rx="33" ry="30" fill="#eef9df"/>
  <path d="M84 62 C66 52 56 36 68 30 C82 38 86 52 84 62 Z" fill="#57b894"/>
  <path d="M116 62 C134 52 144 36 132 30 C118 38 114 52 116 62 Z" fill="#57b894"/>
  <g>
    <circle cx="100" cy="34" r="8" fill="#ff9ec4"/>
    <circle cx="100" cy="34" r="3.5" fill="#ffe08a"/>
  </g>
  <ellipse cx="44" cy="120" rx="11" ry="14" fill="#6fcf57" transform="rotate(-20 44 120)"/>
  <ellipse cx="156" cy="120" rx="11" ry="14" fill="#6fcf57" transform="rotate(20 156 120)"/>
  <ellipse cx="80" cy="108" rx="14" ry="17" fill="#fff"/>
  <ellipse cx="120" cy="108" rx="14" ry="17" fill="#fff"/>
  <circle cx="82" cy="112" r="8.5" fill="#3a4a32"/>
  <circle cx="122" cy="112" r="8.5" fill="#3a4a32"/>
  <circle cx="85" cy="108" r="3" fill="#fff"/>
  <circle cx="125" cy="108" r="3" fill="#fff"/>
  <circle cx="64" cy="126" r="8" fill="#ffb3c8" opacity="0.65"/>
  <circle cx="136" cy="126" r="8" fill="#ffb3c8" opacity="0.65"/>
  <path d="M92 128 Q100 137 108 128" stroke="#3a4a32" stroke-width="3" fill="none" stroke-linecap="round"/>
</svg>
